<svg width="21.000000" height="43.000000" viewBox="0 0 21 43" fill="none" xmlns="http://www.w3.org/2000/svg" xmlns:xlink="http://www.w3.org/1999/xlink">
	<desc>
			Created with Pixso.
	</desc>
	<defs/>
	<path id="Vector" d="M20.11 41.68C20.64 41.07 20.93 40.24 20.93 39.38C20.93 38.52 20.64 37.69 20.11 37.08L6.19 21L20.11 4.91C20.62 4.29 20.9 3.47 20.9 2.62C20.89 1.77 20.6 0.95 20.07 0.35C19.55 -0.25 18.85 -0.59 18.11 -0.6C17.37 -0.61 16.66 -0.28 16.13 0.31L0.22 18.7C-0.31 19.31 -0.6 20.13 -0.6 21C-0.6 21.86 -0.31 22.68 0.22 23.29L16.13 41.68C16.66 42.29 17.37 42.63 18.12 42.63C18.87 42.63 19.58 42.29 20.11 41.68Z" fill="#E2725B" fill-opacity="1.000000" fill-rule="nonzero"/>
</svg>
