<svg width="21.000000" height="43.000000" viewBox="0 0 21 43" fill="none" xmlns="http://www.w3.org/2000/svg" xmlns:xlink="http://www.w3.org/1999/xlink">
	<desc>
			Created with Pixso.
	</desc>
	<defs/>
	<path id="Vector" d="M-0.12 0.31C-0.65 0.92 -0.94 1.75 -0.94 2.61C-0.94 3.47 -0.65 4.3 -0.12 4.91L13.8 21L-0.12 37.08C-0.63 37.7 -0.91 38.52 -0.91 39.37C-0.9 40.22 -0.61 41.04 -0.08 41.64C0.44 42.24 1.14 42.58 1.88 42.59C2.62 42.6 3.33 42.27 3.86 41.68L19.77 23.29C20.3 22.68 20.59 21.86 20.59 21C20.59 20.13 20.3 19.31 19.77 18.7L3.86 0.31C3.33 -0.3 2.62 -0.64 1.87 -0.64C1.12 -0.64 0.41 -0.3 -0.12 0.31Z" fill="#E2725B" fill-opacity="1.000000" fill-rule="nonzero"/>
</svg>
